<svg id="Icon_ionic-ios-menu" data-name="Icon ionic-ios-menu" xmlns="http://www.w3.org/2000/svg" width="36.138" height="25.545" viewBox="0 0 36.138 25.545">
  <path id="Path_10145" data-name="Path 10145" d="M39.133,13.774H6.006A1.693,1.693,0,0,1,4.5,11.95h0a1.693,1.693,0,0,1,1.506-1.825H39.133a1.693,1.693,0,0,1,1.506,1.825h0A1.693,1.693,0,0,1,39.133,13.774Z" transform="translate(-4.5 -10.125)" fill="#51aabc"/>
  <path id="Path_10146" data-name="Path 10146" d="M39.133,20.524H6.006A1.693,1.693,0,0,1,4.5,18.7h0a1.693,1.693,0,0,1,1.506-1.825H39.133A1.693,1.693,0,0,1,40.638,18.7h0A1.693,1.693,0,0,1,39.133,20.524Z" transform="translate(-4.5 -5.927)" fill="#51aabc"/>
  <path id="Path_10147" data-name="Path 10147" d="M39.133,27.274H6.006A1.693,1.693,0,0,1,4.5,25.45h0a1.693,1.693,0,0,1,1.506-1.825H39.133a1.693,1.693,0,0,1,1.506,1.825h0A1.693,1.693,0,0,1,39.133,27.274Z" transform="translate(-4.5 -1.729)" fill="#51aabc"/>
</svg>
