<svg xmlns="http://www.w3.org/2000/svg" width="104.872" height="104.872" viewBox="0 0 104.872 104.872">
  <g id="BOUTON" transform="translate(206.936 -1.046)">
    <path id="Path_3297" data-name="Path 3297" d="M82.215,18.307,66.556,33.965l.072-8.406a3.277,3.277,0,0,0-6.554,0V41.945a2.931,2.931,0,0,0,1.036,2.294,3.254,3.254,0,0,0,2.333.983H79.737a3.277,3.277,0,0,0,0-6.554H71.121L86.849,22.941ZM42.2,22.941a3.278,3.278,0,0,0-3.277,3.277L39,34.627,23.338,18.969,18.7,23.6,34.431,39.327H25.815a3.277,3.277,0,1,0,0,6.554H42.11a3.251,3.251,0,0,0,2.333-.987A2.919,2.919,0,0,0,45.479,42.6V26.218A3.278,3.278,0,0,0,42.2,22.941ZM42.11,60.092H25.815a3.277,3.277,0,1,0,0,6.554h8.613L18.7,82.374l4.634,4.634L38.993,71.349l-.069,8.406a3.277,3.277,0,1,0,6.554,0V63.369a2.942,2.942,0,0,0-1.036-2.294A3.268,3.268,0,0,0,42.11,60.092ZM91.763,0H13.109A13.11,13.11,0,0,0,0,13.109V91.763a13.11,13.11,0,0,0,13.109,13.109H91.763a13.11,13.11,0,0,0,13.109-13.109V13.109A13.11,13.11,0,0,0,91.763,0Zm6.554,91.763a6.553,6.553,0,0,1-6.554,6.554H13.109a6.553,6.553,0,0,1-6.554-6.554V13.109a6.555,6.555,0,0,1,6.554-6.554H91.763a6.555,6.555,0,0,1,6.554,6.554Z" transform="translate(-206.936 1.046)" fill="#fff"/>
    <path id="Path_10208" data-name="Path 10208" d="M22.141,0,6.482,15.659l.072-8.406A3.277,3.277,0,0,0,0,7.252V23.639a2.931,2.931,0,0,0,1.036,2.294,3.254,3.254,0,0,0,2.333.983H19.663a3.277,3.277,0,0,0,0-6.554H11.048L26.775,4.634Z" transform="translate(-120.017 59.669) rotate(90)" fill="#fff"/>
  </g>
</svg>
