<svg xmlns="http://www.w3.org/2000/svg" width="208.251" height="53.505" viewBox="0 0 208.251 53.505">
  <g id="LOGO_HOOPOW" data-name="LOGO HOOPOW" transform="translate(-59.778 -101.268)">
    <path id="Path_9082" data-name="Path 9082" d="M-47.443-25.22a1.818,1.818,0,0,1,1.119-.871,6.719,6.719,0,0,1,1.99-.249,7.007,7.007,0,0,1,1.907.207,3.275,3.275,0,0,1,1.078.5,1.869,1.869,0,0,1,.58.829,8.245,8.245,0,0,1,.207,2.156V.358a12.044,12.044,0,0,1-.062,1.43,3.321,3.321,0,0,1-.394,1.1q-.58,1.119-3.234,1.119-2.9,0-3.4-1.534A6.931,6.931,0,0,1-47.9.317V-8.1H-58.884V.358a12.045,12.045,0,0,1-.062,1.43,3.322,3.322,0,0,1-.394,1.1q-.58,1.119-3.234,1.119-2.9,0-3.4-1.534A6.931,6.931,0,0,1-66.222.317V-22.691a12.038,12.038,0,0,1,.062-1.43,3.32,3.32,0,0,1,.394-1.1q.58-1.119,3.234-1.119,2.9,0,3.441,1.534a8.244,8.244,0,0,1,.207,2.156v8.457H-47.9v-8.5a12.044,12.044,0,0,1,.062-1.43A3.321,3.321,0,0,1-47.443-25.22Zm23.215-1.492a14.708,14.708,0,0,1,10.654,4.436A14.8,14.8,0,0,1-9.055-11.27,15.818,15.818,0,0,1-13.366-.077,13.942,13.942,0,0,1-23.979,4.545,14.36,14.36,0,0,1-34.7-.015,15.076,15.076,0,0,1-39.11-10.876a16.691,16.691,0,0,1,1.244-6.446,14.946,14.946,0,0,1,3.316-5.037,15.525,15.525,0,0,1,4.767-3.192A13.907,13.907,0,0,1-24.228-26.712Zm-7.545,15.629a7.952,7.952,0,0,0,2.384,5.99,7.5,7.5,0,0,0,5.327,2.3,7.528,7.528,0,0,0,5.306-2.239,7.888,7.888,0,0,0,2.363-6.011,7.987,7.987,0,0,0-2.384-6.052,7.53,7.53,0,0,0-5.327-2.28,7.428,7.428,0,0,0-5.306,2.3A7.988,7.988,0,0,0-31.773-11.083ZM6.657-26.712a14.708,14.708,0,0,1,10.654,4.436A14.8,14.8,0,0,1,21.829-11.27,15.818,15.818,0,0,1,17.518-.077,13.942,13.942,0,0,1,6.905,4.545,14.36,14.36,0,0,1-3.811-.015,15.076,15.076,0,0,1-8.226-10.876a16.691,16.691,0,0,1,1.244-6.446,14.946,14.946,0,0,1,3.316-5.037A15.525,15.525,0,0,1,1.1-25.551,13.907,13.907,0,0,1,6.657-26.712ZM-.888-11.083A7.952,7.952,0,0,0,1.5-5.093a7.5,7.5,0,0,0,5.327,2.3,7.528,7.528,0,0,0,5.306-2.239,7.888,7.888,0,0,0,2.363-6.011,7.987,7.987,0,0,0-2.384-6.052,7.53,7.53,0,0,0-5.327-2.28,7.428,7.428,0,0,0-5.306,2.3A7.988,7.988,0,0,0-.888-11.083Zm55.84-9.12a10.957,10.957,0,0,1,1.078,4.892,10.825,10.825,0,0,1-1.078,4.871,9.563,9.563,0,0,1-2.778,3.462,11.546,11.546,0,0,1-7.13,2.653H39.862V.358a12.044,12.044,0,0,1-.062,1.43,3.322,3.322,0,0,1-.394,1.1q-.58,1.119-3.234,1.119-2.9,0-3.4-1.534A6.931,6.931,0,0,1,32.525.317V-22.691a12.041,12.041,0,0,1,.062-1.43,3.321,3.321,0,0,1,.394-1.1q.58-1.119,3.234-1.119h8.871a11.5,11.5,0,0,1,7.089,2.653A9.524,9.524,0,0,1,54.952-20.2Zm-9.866,8.54a4.018,4.018,0,0,0,2.446-.912,3.217,3.217,0,0,0,1.2-2.736,3.275,3.275,0,0,0-1.2-2.757A4.014,4.014,0,0,0,45.044-19H39.862v7.338ZM71.742-26.712A14.708,14.708,0,0,1,82.4-22.276,14.8,14.8,0,0,1,86.914-11.27,15.818,15.818,0,0,1,82.6-.077,13.942,13.942,0,0,1,71.99,4.545,14.36,14.36,0,0,1,61.274-.015a15.076,15.076,0,0,1-4.415-10.861A16.692,16.692,0,0,1,58.1-17.322a14.946,14.946,0,0,1,3.316-5.037,15.525,15.525,0,0,1,4.767-3.192A13.907,13.907,0,0,1,71.742-26.712ZM64.2-11.083a7.952,7.952,0,0,0,2.384,5.99,7.5,7.5,0,0,0,5.327,2.3,7.528,7.528,0,0,0,5.306-2.239,7.888,7.888,0,0,0,2.363-6.011,7.987,7.987,0,0,0-2.384-6.052,7.53,7.53,0,0,0-5.327-2.28,7.428,7.428,0,0,0-5.306,2.3A7.988,7.988,0,0,0,64.2-11.083Z" transform="translate(126 140.67)" fill="#fff"/>
    <g id="Group_2838" data-name="Group 2838" transform="translate(212.478 101.268)">
      <rect id="Rectangle_1250" data-name="Rectangle 1250" width="46.062" height="44.91" rx="5" transform="translate(5.751 7.542) rotate(-5)" fill="#2f8495"/>
      <path id="Path_9084" data-name="Path 9084" d="M5.758,0H40.3a5.758,5.758,0,0,1,5.758,5.758V39.152A5.758,5.758,0,0,1,40.3,44.91H5.758A5.758,5.758,0,0,1,0,39.152V5.758A5.758,5.758,0,0,1,5.758,0Z" transform="matrix(0.978, -0.208, 0.208, 0.978, 0, 9.577)" fill="#51aabc"/>
      <path id="Path_9083" data-name="Path 9083" d="M19.951-26.189q2.778.995,2.778,2.653a8.034,8.034,0,0,1-.5,2.031L14.271,1.5a4.253,4.253,0,0,1-.29.7,3.963,3.963,0,0,1-1.1,1.1,3.372,3.372,0,0,1-2.114.684,3.372,3.372,0,0,1-2.114-.684A3.671,3.671,0,0,1,7.473,1.959l-4.85-14.3Q-1.979,1.254-2.062,1.5a3.586,3.586,0,0,1-.373.7,4.851,4.851,0,0,1-.663.829,3.111,3.111,0,0,1-2.28.953,3.592,3.592,0,0,1-2.176-.622,3.459,3.459,0,0,1-1.14-1.244l-.29-.622-8-23.008a7.23,7.23,0,0,1-.456-2.031q0-1.658,2.778-2.612a6.747,6.747,0,0,1,2.176-.415A1.781,1.781,0,0,1-11-25.9a6.37,6.37,0,0,1,.933,2.031L-5.5-10.022-.984-23.661a3.766,3.766,0,0,1,2.114-2.4,4.332,4.332,0,0,1,1.72-.29,3.217,3.217,0,0,1,1.969.684A3.245,3.245,0,0,1,5.98-24.324L10.748-9.939l4.56-13.929q.332-.953.539-1.409a2.479,2.479,0,0,1,.767-.891A2.194,2.194,0,0,1,18-26.6,5.744,5.744,0,0,1,19.951-26.189Z" transform="translate(23.401 39.418)" fill="#fff"/>
    </g>
  </g>
</svg>
