<svg xmlns="http://www.w3.org/2000/svg" width="325.528" height="146.106" viewBox="0 0 325.528 146.106">
  <g id="MUSLIM_SHOW" data-name="MUSLIM SHOW" transform="translate(-4.037 5.51)">
    <g id="MUSLIM_SHOW-2" data-name="MUSLIM SHOW" transform="translate(4.037 -5.51)">
      <path id="Path_10204" data-name="Path 10204" d="M-91.682-.163v-2.68c-6.868-.67-7.2-1.256-7.37-9.381l-.838-30.906c-.168-7.622.251-8.04,7.2-8.711V-54.6H-108.6l-17.5,38.527L-143.275-54.6h-16.081v2.764c7.37.67,7.957,1.508,7.2,11.558l-1.256,16.835a150.2,150.2,0,0,1-1.759,15.662c-.5,3.1-2.094,4.439-6.868,4.858V-.163H-142.1V-2.927c-5.612-.5-7.37-1.173-7.622-5.025A105.336,105.336,0,0,1-149.64-21.6l1.089-22.614h.251L-130.628-.749h2.178l19.18-44.39h.335l.251,32.916c0,8.124-.335,8.711-6.868,9.381v2.68ZM-28.949-54.6h-20.6v2.764c5.779.335,7.622,1.759,8.124,4.774a86.236,86.236,0,0,1,.754,12.479v7.957c0,13.987-4.188,22.446-14.908,22.446-9.548,0-14.322-7.454-14.322-20.352v-18.51c0-7.789.754-8.292,7.035-8.794V-54.6H-86.824v2.764c6.365.586,7.119,1.005,7.119,8.794v20.185c0,9.8,2.345,16,7.119,19.766,3.936,3.015,9.046,4.188,14.322,4.188,5.779,0,11.474-2.01,15.327-6.03,4.774-5.025,6.2-12.144,6.2-21.358v-8.292A88.881,88.881,0,0,1-36.152-46.9c.419-3.183,2.429-4.69,7.2-4.942ZM7.9-41.873C7.233-47.149,6.73-50.667,6.4-53.766A37.627,37.627,0,0,0-4.912-55.86c-11.474,0-18.426,7.119-18.426,15.83,0,8.543,6.868,12.982,14.322,16.835,6.282,3.266,10.3,6.365,10.3,11.726,0,5.612-3.434,9.3-9.046,9.3C-15.967-2.173-20.49-11.219-22-16.5l-2.848.838c.586,4.69,1.675,11.726,2.429,13.736A30.154,30.154,0,0,0-17.642-.163,26.573,26.573,0,0,0-9.351,1.093c11.893,0,19.766-7.287,19.766-16.583,0-8.711-6.7-13.066-14.657-17.086-7.119-3.518-10.553-6.282-10.553-11.474a8.222,8.222,0,0,1,8.543-8.543c6.952,0,9.8,6.03,11.474,11.307Zm46.652,27.22c-1.424,4.02-2.931,6.7-4.523,8.376-1.926,2.261-4.858,2.764-8.878,2.764-2.931,0-5.36-.168-6.868-.838C32.611-5.1,32.276-6.7,32.276-10.8V-43.716c0-7.119.754-7.622,7.2-8.124V-54.6H15.273v2.764c6.533.5,7.287,1.005,7.287,8.124v32.581c0,7.119-.838,7.705-7.957,8.292v2.68H54.3c.754-2.345,2.429-10.553,3.1-13.82ZM85.125-.163v-2.68c-6.449-.586-7.119-1.173-7.119-8.208V-43.632c0-7.119.67-7.705,7.119-8.208V-54.6H61.087v2.764c6.449.5,7.2,1.089,7.2,8.208v32.581c0,7.119-.754,7.622-7.2,8.208v2.68Zm75.38,0v-2.68c-6.868-.67-7.2-1.256-7.37-9.381L152.3-43.129c-.168-7.622.251-8.04,7.2-8.711V-54.6H143.586l-17.5,38.527L108.911-54.6H92.83v2.764c7.37.67,7.957,1.508,7.2,11.558L98.777-23.447A150.2,150.2,0,0,1,97.018-7.785c-.5,3.1-2.094,4.439-6.868,4.858V-.163h19.934V-2.927c-5.612-.5-7.37-1.173-7.622-5.025a105.336,105.336,0,0,1,.084-13.652l1.089-22.614h.251L121.558-.749h2.178l19.18-44.39h.335l.251,32.916c0,8.124-.335,8.711-6.868,9.381v2.68Z" transform="translate(163.453 55.86)" fill="#f2f2f2"/>
      <path id="Path_10205" data-name="Path 10205" d="M-118.064-55.831c-.893-7.035-1.563-11.726-2.01-15.858-2.9-.893-8.6-2.792-15.076-2.792-15.3,0-24.568,9.492-24.568,21.106,0,11.391,9.157,17.309,19.1,22.446,8.376,4.355,13.736,8.487,13.736,15.634,0,7.482-4.579,12.4-12.061,12.4-10.944,0-16.974-12.061-18.984-19.1l-3.8,1.117c.782,6.254,2.233,15.634,3.239,18.314a40.206,40.206,0,0,0,6.365,2.345,35.431,35.431,0,0,0,11.056,1.675c15.858,0,26.355-9.716,26.355-22.111,0-11.614-8.934-17.421-19.543-22.781-9.492-4.69-14.071-8.376-14.071-15.3,0-6.254,4.355-11.391,11.391-11.391,9.269,0,13.066,8.04,15.3,15.076ZM-29.73-72.8H-61.669v3.685c8.487.782,9.269,1.34,9.269,10.832v16.974H-85.567V-58.287c0-9.492.893-10.162,9.157-10.832V-72.8h-31.939v3.685c8.822.67,9.827,1.34,9.827,10.832v43.664c0,9.381-1.005,10.051-9.492,10.832V-.217h31.939V-3.791c-8.6-.782-9.492-1.452-9.492-10.832v-21.33H-52.4v21.33c0,9.381-.893,10.051-9.939,10.832V-.217H-29.73V-3.791c-8.711-.782-9.6-1.452-9.6-10.832V-58.287c0-9.492.782-10.051,9.6-10.832ZM16.5-74.48c-24.68,0-38.527,18.873-38.527,38.3,0,21.441,15.634,37.634,37.187,37.634,20.883,0,38.081-14.741,38.081-38.751C53.243-59.516,36.38-74.48,16.5-74.48Zm-2.122,4.467c13.624,0,23.786,13.066,23.786,35.735,0,20.883-9.492,31.269-20.771,31.269C2.543-3.009-6.949-18.867-6.949-38.633-6.949-58.511,2.767-70.013,14.381-70.013ZM163.8-72.8H138.227v3.685c8.934.893,9.381,2.568,7.817,9.269-1.675,7.035-6.812,26.02-11.279,40.091h-.223q-9.548-25.964-18.984-52.263h-4.69c-5.36,17.644-11.167,35.065-16.751,52.04h-.223c-4.244-13.624-8.264-27.36-12.172-41.1-1.563-5.807-1.452-7.035,6.924-8.04V-72.8H57.71v3.685c6.7.893,8.487,2.233,11.279,11.056C75.131-38.186,80.938-19.09,86.969,1.011h5.025c5.472-16.863,11.279-33.949,17.2-51.816h.223c6.142,16.751,12.619,34.619,18.761,51.816H133.2c9.269-31.269,15.858-51.258,18.426-58.517,3.127-9.269,4.69-10.5,12.172-11.614Z" transform="translate(161.728 144.648)" fill="#f2f2f2"/>
    </g>
  </g>
</svg>
