<svg xmlns="http://www.w3.org/2000/svg" width="36.482" height="36.482" viewBox="0 0 36.482 36.482">
  <path id="Path_3297" data-name="Path 3297" d="M14.542,20.278,9.1,25.725,9.12,22.8a1.14,1.14,0,0,0-2.28,0v5.7a1.02,1.02,0,0,0,.36.8,1.132,1.132,0,0,0,.812.342h5.668a1.14,1.14,0,1,0,0-2.28h-3l5.471-5.471ZM13.681,9.12a1.14,1.14,0,0,0,0-2.28H8.012a1.137,1.137,0,0,0-.812.342,1.02,1.02,0,0,0-.36.8v5.7a1.14,1.14,0,1,0,2.28,0L9.1,10.755,14.542,16.2l1.612-1.612-5.47-5.47ZM28.5,21.661a1.14,1.14,0,0,0-1.14,1.14l.025,2.925-5.447-5.447-1.612,1.612,5.471,5.47h-3a1.14,1.14,0,1,0,0,2.28h5.668a1.131,1.131,0,0,0,.812-.343,1.015,1.015,0,0,0,.36-.8V22.8A1.14,1.14,0,0,0,28.5,21.661ZM28.469,6.84H22.8a1.14,1.14,0,0,0,0,2.28h3l-5.471,5.471L21.938,16.2l5.447-5.447-.024,2.924a1.14,1.14,0,1,0,2.28,0V7.98a1.023,1.023,0,0,0-.36-.8A1.137,1.137,0,0,0,28.469,6.84ZM31.921,0H4.56A4.56,4.56,0,0,0,0,4.56V31.921a4.56,4.56,0,0,0,4.56,4.56H31.921a4.56,4.56,0,0,0,4.56-4.56V4.56A4.56,4.56,0,0,0,31.921,0ZM34.2,31.921a2.279,2.279,0,0,1-2.28,2.28H4.56a2.279,2.279,0,0,1-2.28-2.28V4.56A2.28,2.28,0,0,1,4.56,2.28H31.921A2.28,2.28,0,0,1,34.2,4.56Z" fill="#fff"/>
</svg>
