<svg xmlns="http://www.w3.org/2000/svg" width="64.065" height="64.066" viewBox="0 0 64.065 64.066">
  <g id="share_1_" data-name="share (1)" transform="translate(-0.004 0)">
    <path id="Path_10206" data-name="Path 10206" d="M175.492,18.63,158.141.612A2,2,0,0,0,154.7,2v8.676h-.667A26.057,26.057,0,0,0,128,36.705v4a1.976,1.976,0,0,0,1.559,1.914,1.788,1.788,0,0,0,.44.053,2.071,2.071,0,0,0,1.828-1.14,21.9,21.9,0,0,1,19.695-12.173H154.7v8.675a2,2,0,0,0,3.443,1.388l17.351-18.018A2,2,0,0,0,175.492,18.63Zm0,0" transform="translate(-111.984)" fill="#51aabc"/>
    <path id="Path_10207" data-name="Path 10207" d="M56.061,138.727H8.012A8.018,8.018,0,0,1,0,130.719V93.348A8.018,8.018,0,0,1,8.012,85.34H16.02a2.669,2.669,0,0,1,0,5.338H8.012a2.671,2.671,0,0,0-2.67,2.67v37.371a2.671,2.671,0,0,0,2.67,2.67H56.061a2.671,2.671,0,0,0,2.669-2.67V109.364a2.669,2.669,0,1,1,5.339,0v21.355A8.018,8.018,0,0,1,56.061,138.727Zm0,0" transform="translate(0 -74.661)" fill="#51aabc"/>
  </g>
</svg>
